<svg width="128" height="27" viewBox="0 0 128 27" fill="none" xmlns="http://www.w3.org/2000/svg">
<g clip-path="url(#clip0_4012_188)">
<path d="M37.2156 20.3749C34.9857 20.3749 33.1401 19.6376 31.6795 18.1626C30.2187 16.6878 29.4883 14.8495 29.4883 12.6477C29.4883 10.4459 30.2187 8.60763 31.6795 7.13276C33.1401 5.65789 34.9857 4.92044 37.2156 4.92044C38.5565 4.92044 39.7983 5.23808 40.9415 5.87316C42.0847 6.50827 42.981 7.36209 43.6301 8.43486L40.3488 10.319C40.0666 9.7968 39.6467 9.38389 39.0893 9.08044C38.5316 8.77709 37.907 8.62538 37.2156 8.62538C36.0299 8.62538 35.074 8.99582 34.347 9.73684C33.62 10.4777 33.2568 11.448 33.2568 12.6477C33.2568 13.8474 33.62 14.8176 34.347 15.5586C35.074 16.2996 36.0299 16.6701 37.2156 16.6701C37.907 16.6701 38.5316 16.5183 39.0893 16.2149C39.6467 15.9114 40.0666 15.4916 40.3488 14.9553L43.6301 16.8606C42.981 17.9474 42.0885 18.8048 40.9519 19.4329C39.816 20.0609 38.5704 20.3749 37.2156 20.3749ZM51.4845 9.17575C52.6277 9.17575 53.5628 9.5675 54.2898 10.3506C55.0165 11.134 55.3797 12.2596 55.3797 13.7275V20.0574H51.8656V14.1719C51.8656 13.6216 51.7209 13.2052 51.4315 12.9229C51.1421 12.6406 50.7575 12.4995 50.2779 12.4995C49.7272 12.4995 49.3003 12.6654 48.997 12.9971C48.6934 13.3287 48.5417 13.8051 48.5417 14.426V20.0574H45.0274V5.23808H48.5417V10.5307C49.1767 9.62734 50.1578 9.17575 51.4845 9.17575ZM60.7995 11.441C60.9972 10.7494 61.3922 10.2132 61.9852 9.83202C62.5779 9.45098 63.2413 9.26046 63.9752 9.26046V13.1558C63.1706 13.0288 62.4402 13.177 61.7841 13.6004C61.1277 14.0238 60.7995 14.7154 60.7995 15.6751V20.0574H57.2852V9.47217H60.7995V11.441ZM70.1782 20.3537C68.6116 20.3537 67.2777 19.8139 66.1767 18.7343C65.0758 17.6545 64.5254 16.3314 64.5254 14.7648C64.5254 13.1982 65.0758 11.875 66.1767 10.7953C67.2777 9.71565 68.6116 9.17575 70.1782 9.17575C71.7586 9.17575 73.096 9.71565 74.19 10.7953C75.2837 11.875 75.8307 13.1982 75.8307 14.7648C75.8307 16.3314 75.2837 17.6545 74.19 18.7343C73.096 19.8139 71.7586 20.3537 70.1782 20.3537ZM70.1782 16.9665C70.7989 16.9665 71.3106 16.7618 71.7129 16.3526C72.1152 15.9432 72.3163 15.414 72.3163 14.7648C72.3163 14.1155 72.1152 13.5862 71.7129 13.177C71.3106 12.7678 70.7989 12.5631 70.1782 12.5631C69.5713 12.5631 69.0665 12.7678 68.6642 13.177C68.2623 13.5862 68.0608 14.1155 68.0608 14.7648C68.0608 15.414 68.2623 15.9432 68.6642 16.3526C69.0665 16.7618 69.5713 16.9665 70.1782 16.9665ZM89.5279 9.17575C90.7559 9.17575 91.726 9.5675 92.4388 10.3506C93.1516 11.134 93.5079 12.2101 93.5079 13.5792V20.0574H89.9725V13.9814C89.9725 12.9935 89.5349 12.4995 88.66 12.4995C88.1801 12.4995 87.8166 12.6584 87.5695 12.9759C87.3226 13.2933 87.199 13.7275 87.199 14.2778V20.0574H83.6847V13.9814C83.6847 12.9935 83.2402 12.4995 82.3511 12.4995C81.8713 12.4995 81.5077 12.6584 81.2606 12.9759C81.0137 13.2933 80.8901 13.7275 80.8901 14.2778V20.0574H77.3761V9.47217H80.8901V10.4671C81.5396 9.60628 82.492 9.17575 83.7484 9.17575C84.9622 9.17575 85.8654 9.62734 86.4581 10.5307C87.1921 9.62734 88.2151 9.17575 89.5279 9.17575ZM98.5254 16.0562C98.8782 16.9171 99.6686 17.3475 100.896 17.3475C101.659 17.3475 102.301 17.1005 102.823 16.6067L105.363 18.385C104.319 19.6975 102.802 20.3537 100.812 20.3537C99.0195 20.3537 97.5831 19.8281 96.5036 18.7766C95.4238 17.7251 94.8841 16.3949 94.8841 14.786C94.8841 13.191 95.4134 11.8573 96.4718 10.7847C97.5301 9.71209 98.8782 9.17575 100.515 9.17575C102.096 9.17575 103.402 9.70493 104.432 10.7635C105.462 11.822 105.977 13.1488 105.977 14.7436C105.977 15.2094 105.928 15.6469 105.829 16.0562H98.5254ZM98.4829 13.6216H102.548C102.266 12.6336 101.602 12.1397 100.558 12.1397C99.4709 12.1397 98.7792 12.6336 98.4829 13.6216ZM111.587 16.7972H115.546V20.0574H106.888V17.644L110.635 12.7324H107.099V9.47217H115.335V11.8856L111.587 16.7972ZM124.014 9.47217H127.91L124.29 19.8881C123.725 21.4829 122.928 22.6332 121.897 23.3388C120.867 24.0445 119.534 24.3621 117.896 24.2915V20.9889C118.644 20.9889 119.209 20.8972 119.59 20.7137C119.971 20.5303 120.282 20.1985 120.521 19.7187L116.287 9.47217H120.225L122.363 15.6116L124.014 9.47217Z" fill="white"/>
<path fill-rule="evenodd" clip-rule="evenodd" d="M7.28473 10.5555L15.4139 10.58C16.9066 10.9119 15.8703 12.6167 15.5754 13.2337C15.2581 13.8973 14.4619 15.3737 14.3006 15.989C14.7553 16.8751 17.1474 20.1149 17.7062 21.1874L18.9624 18.5656C19.3951 17.6612 19.8036 16.7571 20.2327 15.8562C21.1625 13.9038 22.1217 12.1615 21.2905 9.60823C20.6817 7.73767 19.2047 6.2837 17.36 5.66438C15.6643 5.09503 11.7488 5.37424 9.68842 5.3358L3.94238 5.34911C4.20024 5.9091 6.90801 9.78053 7.28473 10.5555Z" fill="#4380FF"/>
<path fill-rule="evenodd" clip-rule="evenodd" d="M11.8476 21.1775L17.7063 21.1871C17.1476 20.1146 14.7555 16.8748 14.3008 15.9887C13.123 16.0263 6.84931 16.1419 6.12554 15.9577C5.64561 15.8355 5.24414 15.3098 5.37454 14.719C5.45459 14.3556 6.97343 11.3253 7.28489 10.5552C6.90817 9.78022 4.20041 5.90879 3.94255 5.34881L1.41876 10.6792C0.532802 12.643 -0.532961 14.2853 0.346471 16.9172C0.969992 18.7829 2.37233 20.2291 4.27062 20.8698C5.90262 21.4205 9.87566 21.1356 11.8476 21.1775Z" fill="#11DEFF"/>
<path fill-rule="evenodd" clip-rule="evenodd" d="M17.7064 21.1874L11.8477 21.1778C12.0235 21.5552 15.1155 26.1734 15.3089 26.3299L17.7064 21.1874Z" fill="#4373FF"/>
<path fill-rule="evenodd" clip-rule="evenodd" d="M3.94238 5.34882L9.68842 5.33551C9.54569 5.01371 9.10677 4.39979 8.87896 4.06188L6.33018 0.296093C6.10111 0.562844 4.14557 4.79488 3.94238 5.34882Z" fill="#07E9FF"/>
</g>
<defs>
<clipPath id="clip0_4012_188">
<rect width="128" height="26.4828" fill="white"/>
</clipPath>
</defs>
</svg>
