<svg width="365" height="650" viewBox="0 0 365 650" fill="none" xmlns="http://www.w3.org/2000/svg">
<g clip-path="url(#clip0_10_3780)">
<path fill-rule="evenodd" clip-rule="evenodd" d="M-119.803 515.129C-28.6386 606.294 122.356 603.241 220.298 505.299C318.24 407.358 321.292 256.363 230.127 165.198C215.914 150.985 126.057 217.797 29.4266 314.428C-67.2041 411.059 -134.017 500.915 -119.803 515.129ZM-19.0149 566.671C59.8871 588.621 150.25 566.769 216.009 501.01C281.767 435.251 303.619 344.888 281.67 265.986C294.387 339.413 267.578 423.705 203.141 488.142C138.704 552.579 54.4115 579.388 -19.0149 566.671ZM198.852 483.853C131.45 551.254 42.2884 576.232 -32.1886 557.323C37.2427 566.866 120.318 536.651 185.984 470.985C251.65 405.319 281.864 322.244 272.322 252.813C291.231 327.29 266.253 416.452 198.852 483.853ZM-45.1683 548.447C24.4923 564.29 112.421 535.97 181.695 466.696C250.968 397.423 279.289 309.494 263.446 239.833C265.193 257.821 263.88 277.071 259.663 296.895C248.604 348.884 217.547 405.108 168.827 453.828C120.107 502.549 63.8826 533.605 11.894 544.664C-7.93045 548.881 -27.1804 550.194 -45.1683 548.447ZM11.0074 538.513C-13.4209 543.709 -36.7259 544.332 -57.6638 540.213C-39.8627 541.072 -20.3505 538.392 -0.00310616 532.473C48.8059 518.275 103.023 485.319 151.67 436.671C200.317 388.024 233.273 333.807 247.472 284.998C253.391 264.651 256.071 245.139 255.212 227.338C259.33 248.275 258.707 271.581 253.511 296.009C242.759 346.557 212.448 401.629 164.538 449.539C116.627 497.45 61.5551 527.76 11.0074 538.513ZM-69.2974 532.678C-49.3189 535.823 -26.2024 533.667 -1.35913 526.44C46.1585 512.617 99.3975 480.365 147.381 432.382C195.364 384.399 227.616 331.16 241.438 283.642C248.665 258.799 250.822 235.683 247.676 215.704C247.418 232.97 243.095 252.481 235.255 273.12C217.931 318.728 183.092 370.936 134.513 419.514C85.9343 468.093 33.7263 502.933 -11.8817 520.257C-32.52 528.096 -52.0309 532.419 -69.2974 532.678ZM-13.7441 514.393C-38.9535 523.968 -61.6074 527.886 -80.1661 525.896C-63.9242 524.313 -44.7113 518.114 -23.7456 508.01C18.6432 487.58 68.8419 450.872 117.356 402.357C165.87 353.843 202.578 303.645 223.008 261.256C233.113 240.29 239.312 221.077 240.894 204.835C242.885 223.394 238.967 246.048 229.391 271.257C212.485 315.766 178.276 367.173 130.224 415.225C82.1718 463.277 30.765 497.486 -13.7441 514.393ZM-90.1917 519.96C-87.2365 520.075 -84.1055 519.981 -80.8038 519.678C-65.5077 518.272 -46.9143 512.387 -26.1438 502.376C15.3749 482.366 64.9502 446.185 113.067 398.068C161.183 349.952 197.364 300.376 217.375 258.858C227.385 238.087 233.271 219.494 234.676 204.198C234.98 200.896 235.073 197.765 234.959 194.81C234.726 195.91 234.465 197.026 234.177 198.156C230.556 212.374 222.47 229.843 210.727 249.4C187.217 288.558 148.653 336.747 100.199 385.201C51.7453 433.654 3.5565 472.218 -35.6011 495.729C-55.1589 507.471 -72.6271 515.558 -86.8452 519.178C-87.9754 519.466 -89.0914 519.727 -90.1917 519.96ZM-87.9859 513.086C-94.4737 514.738 -99.9104 515.314 -104.338 514.935C-71.7368 503.304 2.34197 444.454 80.8975 365.899C159.453 287.343 218.302 213.265 229.933 180.663C230.313 185.091 229.737 190.528 228.085 197.016C224.693 210.336 216.975 227.158 205.392 246.449C182.252 284.99 144.087 332.734 95.9098 380.911C47.7329 429.088 -0.0116947 467.254 -38.552 490.394C-57.8431 501.976 -74.665 509.694 -87.9859 513.086ZM221.969 169.775C224.438 169.371 225.32 169.709 225.515 169.81C225.616 170.006 225.955 170.887 225.551 173.356C225.043 176.457 223.532 180.843 220.766 186.557C215.269 197.916 205.528 213.096 192.124 231.123C165.377 267.096 124.76 313.458 76.6082 361.61C28.4565 409.761 -17.9059 450.379 -53.8781 477.125C-71.9058 490.53 -87.085 500.271 -98.4444 505.768C-104.159 508.533 -108.544 510.045 -111.645 510.552C-114.114 510.956 -114.996 510.618 -115.191 510.517C-115.292 510.321 -115.631 509.439 -115.227 506.971C-114.719 503.87 -113.208 499.484 -110.442 493.77C-104.945 482.41 -95.2044 467.231 -81.8 449.204C-55.0531 413.231 -14.4359 366.869 33.7158 318.717C81.8675 270.566 128.23 229.948 164.202 203.201C182.23 189.797 197.409 180.056 208.768 174.559C214.483 171.794 218.868 170.282 221.969 169.775Z" fill="url(#paint0_linear_10_3780)"/>
<path fill-rule="evenodd" clip-rule="evenodd" d="M-145.864 489.068C-237.028 397.903 -233.976 246.909 -136.034 148.967C-38.0924 51.0253 112.902 47.9728 204.067 139.138C218.28 153.351 151.468 243.208 54.8371 339.838C-41.7935 436.469 -131.65 503.282 -145.864 489.068ZM-197.406 388.28C-219.356 309.378 -197.503 219.015 -131.745 153.256C-65.9864 87.4977 24.3767 65.6455 103.279 87.595C29.8524 74.8782 -54.4402 101.687 -118.877 166.124C-183.314 230.561 -210.123 314.853 -197.406 388.28ZM-114.588 170.413C-181.989 237.815 -206.967 326.977 -188.058 401.454C-197.601 332.022 -167.386 248.947 -101.72 183.281C-36.0541 117.615 47.0211 87.4005 116.452 96.9433C41.9754 78.0342 -47.1867 103.012 -114.588 170.413ZM-179.182 414.433C-195.025 344.773 -166.704 256.844 -97.431 187.57C-28.1575 118.297 59.7715 89.9763 129.432 105.819C111.444 104.072 92.1941 105.385 72.3697 109.602C20.3811 120.661 -35.8431 151.718 -84.5633 200.438C-133.283 249.158 -164.34 305.382 -175.399 357.371C-179.616 377.195 -180.929 396.445 -179.182 414.433ZM-169.247 358.257C-174.444 382.686 -175.066 405.991 -170.948 426.929C-171.807 409.128 -169.127 389.615 -163.208 369.268C-149.01 320.459 -116.054 266.242 -67.4063 217.595C-18.7588 168.947 35.4578 135.991 84.2668 121.793C104.614 115.874 124.126 113.194 141.928 114.053C120.99 109.935 97.6846 110.557 73.2563 115.754C22.7086 126.506 -32.3635 156.817 -80.274 204.727C-128.184 252.638 -158.495 307.71 -169.247 358.257ZM-163.413 438.562C-166.558 418.584 -164.401 395.467 -157.175 370.624C-143.352 323.106 -111.1 269.867 -63.117 221.884C-15.1338 173.901 38.1052 141.649 85.6228 127.827C110.466 120.6 133.583 118.443 153.561 121.589C136.295 121.847 116.784 126.17 96.1454 134.01C50.5374 151.334 -1.67062 186.173 -50.2493 234.752C-98.828 283.331 -133.667 335.539 -150.991 381.147C-158.831 401.785 -163.154 421.296 -163.413 438.562ZM-145.128 383.009C-154.703 408.218 -158.621 430.872 -156.631 449.431C-155.048 433.189 -148.849 413.976 -138.744 393.011C-118.315 350.622 -81.6065 300.423 -33.0923 251.909C15.4218 203.395 65.6205 166.687 108.009 146.257C128.975 136.152 148.188 129.953 164.43 128.37C145.871 126.38 123.217 130.298 98.0078 139.874C53.4987 156.78 2.09196 190.989 -45.9601 239.041C-94.0121 287.093 -128.221 338.5 -145.128 383.009ZM-150.695 459.457C-150.81 456.501 -150.716 453.37 -150.412 450.069C-149.007 434.773 -143.122 416.179 -133.111 395.409C-113.101 353.89 -76.9196 304.315 -28.8031 256.198C19.3135 208.082 68.8888 171.901 110.408 151.89C131.178 141.88 149.771 135.994 165.068 134.589C168.369 134.285 171.5 134.192 174.455 134.306C173.355 134.539 172.239 134.8 171.109 135.088C156.891 138.708 139.423 146.795 119.865 158.538C80.7072 182.048 32.5184 220.612 -15.9354 269.066C-64.3891 317.52 -102.953 365.708 -126.463 404.866C-138.206 424.424 -146.293 441.892 -149.913 456.11C-150.201 457.24 -150.462 458.356 -150.695 459.457ZM-143.821 457.251C-145.473 463.739 -146.049 469.175 -145.67 473.603C-134.038 441.002 -75.1893 366.923 3.36623 288.367C81.9217 209.812 156 150.963 188.602 139.331C184.174 138.952 178.737 139.528 172.25 141.18C158.929 144.572 142.107 152.29 122.816 163.873C84.2754 187.012 36.5308 225.178 -11.6461 273.355C-59.8231 321.532 -97.9888 369.277 -121.128 407.817C-132.711 427.108 -140.429 443.93 -143.821 457.251ZM199.49 147.296C199.894 144.827 199.556 143.945 199.455 143.749C199.259 143.649 198.378 143.31 195.909 143.714C192.808 144.222 188.422 145.733 182.708 148.498C171.349 153.996 156.17 163.736 138.142 177.141C102.17 203.888 55.8072 244.505 7.65547 292.657C-40.4962 340.808 -81.1135 387.171 -107.86 423.143C-121.265 441.171 -131.005 456.35 -136.503 467.709C-139.268 473.424 -140.78 477.809 -141.287 480.91C-141.691 483.379 -141.353 484.261 -141.252 484.456C-141.056 484.557 -140.174 484.895 -137.705 484.492C-134.604 483.984 -130.219 482.473 -124.505 479.707C-113.145 474.21 -97.9662 464.469 -79.9384 451.065C-43.9662 424.318 2.39619 383.701 50.5479 335.549C98.6996 287.397 139.317 241.035 166.064 205.063C179.468 187.035 189.209 171.856 194.706 160.496C197.472 154.782 198.983 150.397 199.49 147.296Z" fill="url(#paint1_linear_10_3780)"/>
</g>
<defs>
<linearGradient id="paint0_linear_10_3780" x1="240.818" y1="504.349" x2="19.8181" y2="306.099" gradientUnits="userSpaceOnUse">
<stop stop-color="white"/>
<stop offset="1" stop-color="white" stop-opacity="0"/>
</linearGradient>
<linearGradient id="paint1_linear_10_3780" x1="-168.679" y1="120.852" x2="63.5906" y2="349.211" gradientUnits="userSpaceOnUse">
<stop stop-color="white"/>
<stop offset="1" stop-color="white" stop-opacity="0"/>
</linearGradient>
<clipPath id="clip0_10_3780">
<rect width="650" height="650" fill="white" transform="translate(-285)"/>
</clipPath>
</defs>
</svg>
